<svg width="191" height="34" viewBox="0 0 191 34" fill="none" xmlns="http://www.w3.org/2000/svg">
  <path d="M4.1102 9.71021L10.8968 29.7608C11.0785 30.2252 11.1881 30.7146 11.2218 31.212C11.2218 31.4889 11.2218 31.7754 11.5946 31.7754C11.9674 31.7754 11.9674 31.4889 11.9674 31.212C12.0011 30.7146 12.1107 30.2252 12.2924 29.7608L19.079 9.71021H23.1892L14.5864 33.5799H8.60274L0 9.71021H4.1102Z" fill="currentColor"></path>
  <path d="M45.2335 22.5998H27.2825C27.4641 26.8009 30.2743 30.6296 35.0441 30.6296C38.4565 30.6296 40.1388 28.4813 40.98 25.7793H44.9085C44.478 28.1072 43.2375 30.2082 41.4061 31.7108C39.5747 33.2133 37.2705 34.0208 34.9007 33.9904C27.6075 33.9904 23.6311 28.2617 23.6311 21.6641C23.6311 14.3314 28.1619 9.33782 34.8051 9.33782C39.9476 9.33782 45.3196 12.7464 45.3196 20.9671C45.3217 21.5126 45.293 22.0576 45.2335 22.5998ZM27.4641 19.6113H41.5821C41.2572 15.2193 38.8293 12.5077 35.0823 12.5077C29.9876 12.5077 27.9803 15.6872 27.4641 19.6113Z" fill="currentColor"></path>
  <path d="M70.0057 19.4204V33.6181H66.2683V19.6113C66.2683 14.0545 63.7448 12.5077 60.4184 12.5077C56.7766 12.5077 52.7716 16.0118 52.7716 21.7119V33.6181H49.0341V9.74838H52.7716V11.7534C52.7673 12.6303 52.6087 13.4997 52.3032 14.3218C52.1694 14.6942 51.9304 15.1143 52.3032 15.2766C52.676 15.4389 52.7716 15.0952 52.8194 14.952C53.5289 13.3353 54.6817 11.9521 56.1447 10.962C57.6078 9.97201 59.3213 9.41554 61.0875 9.35691C66.6411 9.35691 70.0057 12.4218 70.0057 19.4204Z" fill="currentColor"></path>
  <path d="M81.2293 12.8896V26.8964C81.2293 29.608 81.7932 30.4482 84.4123 30.4482H87.9585V33.6181H84.4123C79.4514 33.6181 77.4919 32.1764 77.4919 26.6195V12.8896H73.7449V9.71019H77.4919V3.02667H81.2293V9.71019H87.9203V12.8896H81.2293Z" fill="currentColor"></path>
  <path d="M95.4997 14.8469C97.0864 10.9705 98.3673 9.33782 104.38 9.33782V13.157C97.4114 12.6891 95.4041 15.162 95.4041 21.4254V33.6085H91.6763V9.73883H95.4137V11.6484C95.4224 12.6011 95.2639 13.5479 94.9453 14.4459C94.8019 14.8183 94.6681 15.2384 95.0409 15.2862C95.4137 15.3339 95.4424 15.0856 95.4997 14.8469Z" fill="currentColor"></path>
  <path d="M107.972 0H112.082V4.85032H107.972V0ZM108.154 9.71019H111.901V33.5799H108.154V9.71019Z" fill="currentColor"></path>
  <path d="M121.251 0V33.6181H117.485V0H121.251Z" fill="currentColor"></path>
  <path d="M147.443 21.6641C147.443 28.4336 143.228 33.9904 136.221 33.9904C129.215 33.9904 124.999 28.4336 124.999 21.6641C124.999 14.8947 129.205 9.35691 136.221 9.35691C143.237 9.35691 147.443 14.8947 147.443 21.6641ZM143.696 21.6641C143.696 16.7183 140.943 12.6987 136.221 12.6987C131.499 12.6987 128.737 16.7183 128.737 21.6641C128.737 26.6099 131.499 30.6296 136.221 30.6296C140.943 30.6296 143.696 26.6195 143.696 21.6641Z" fill="currentColor"></path>
  <path d="M161.6 9.35695C167.871 9.35695 171.56 13.749 171.933 18.3224H168.291C168.136 16.7156 167.361 15.2322 166.13 14.1862C164.899 13.1402 163.309 12.6136 161.696 12.7178C156.362 12.7178 153.982 16.8234 153.982 21.6833C153.982 26.5431 156.362 30.6487 161.696 30.6487C163.309 30.7529 164.899 30.2263 166.13 29.1803C167.361 28.1343 168.136 26.6509 168.291 25.0441H171.971C171.599 29.6271 167.947 34.0096 161.639 34.0096C154.575 34.0096 150.273 28.4527 150.273 21.6833C150.273 14.9138 154.403 9.35695 161.6 9.35695Z" fill="currentColor"></path>
  <path d="M183.564 13.071C183.334 12.9565 183.057 12.8419 183.057 12.5077C183.057 12.1736 183.334 12.0685 183.564 11.9539C186.326 10.8178 188.238 9.80568 189.433 7.9152C190.503 6.22523 191 3.8287 191 0H185.839C186.068 3.49452 185.753 6.07246 184.816 7.9152C183.793 9.9489 182.015 11.1042 179.425 11.658V13.367C182.015 13.9208 183.793 15.0761 184.816 17.1098C185.772 18.9525 186.068 21.5209 185.839 25.025H191C191 21.2058 190.503 18.7998 189.433 17.1098C188.219 15.2193 186.307 14.2072 183.564 13.071Z" fill="currentColor"></path>
</svg>