<svg xmlns="http://www.w3.org/2000/svg" viewBox="0 0 280 56" width="280" height="56" fill="none" role="img" aria-label="WeFixTrades">
  <title>WeFixTrades</title>
  <!-- Badged icon, sized to 48x48 inside a 56-tall canvas -->
  <g transform="translate(0 4)">
    <rect x="0.5" y="0.5" width="47" height="47" rx="11" fill="#E5E7EB" stroke="rgba(13,60,252,0.18)" stroke-width="1" />
    <g transform="translate(6 6)">
      <path d="M13.5 4.5H9a4.5 4.5 0 0 0-4.5 4.5v4.5" stroke="#0d3cfc" stroke-width="3.75" stroke-linecap="round" stroke-linejoin="round" />
      <path d="M22.5 4.5H27a4.5 4.5 0 0 1 4.5 4.5v4.5" stroke="#0d3cfc" stroke-width="3.75" stroke-linecap="round" stroke-linejoin="round" />
      <path d="M4.5 22.5V27a4.5 4.5 0 0 0 4.5 4.5h4.5" stroke="#0d3cfc" stroke-width="3.75" stroke-linecap="round" stroke-linejoin="round" />
      <path d="M31.5 22.5V27a4.5 4.5 0 0 1-4.5 4.5h-4.5" stroke="#0d3cfc" stroke-width="3.75" stroke-linecap="round" stroke-linejoin="round" />
      <path d="m12 18.75 4.5 4.5 7.5-9" stroke="#0d3cfc" stroke-width="3.75" stroke-linecap="round" stroke-linejoin="round" />
    </g>
  </g>
  <!-- Wordmark: "We" + "Fix" (blue) + "Trades". Font stack matches the rest of the
       app (Inter / system-ui fallback). Renders consistently on light backgrounds. -->
  <text x="64" y="38" font-family="Inter, system-ui, -apple-system, 'Segoe UI', Roboto, sans-serif"
        font-weight="700" font-size="34" letter-spacing="-0.02em" fill="#1E1E1E">
    We<tspan fill="#0d3cfc">Fix</tspan>Trades
  </text>
</svg>
