<svg width="32" height="32" viewBox="0 0 32 32" fill="none" xmlns="http://www.w3.org/2000/svg">
<g clip-path="url(#clip0_3586_29070)">
<rect x="3.2" y="4" width="24.8" height="24" fill="white"/>
<path d="M30.9288 1.07139C30.2674 0.408533 29.3531 0 28.3429 0H3.65714C2.64686 0 1.73257 0.408533 1.07124 1.07139C0.408381 1.73272 0 2.64701 0 3.65729V28.343C0 29.3533 0.408381 30.2676 1.07124 30.9289C1.73257 31.5902 2.64686 32.0002 3.65714 32.0002H28.3429C29.3531 32.0002 30.2674 31.5902 30.9288 30.9289C31.5901 30.2676 32 29.3533 32 28.343V3.65729C32 2.64701 31.5901 1.73272 30.9288 1.07139ZM25.859 25.143C21.1185 25.143 17.2206 21.5362 16.7619 16.9175V25.143C13.2434 25.143 10.3436 21.6108 9.95048 17.0592V25.143C7.8461 25.143 6.14095 21.0501 6.14095 16.0002C6.14095 10.9502 7.8461 6.85729 9.95048 6.85729V14.9411C10.3436 10.3895 13.2434 6.85729 16.7619 6.85729V15.0828C17.2206 10.4642 21.1185 6.85729 25.859 6.85729V25.143Z" fill="black"/>
</g>
<defs>
<clipPath id="clip0_3586_29070">
<rect width="32" height="32" fill="white"/>
</clipPath>
</defs>
</svg>
