<svg width="126" height="38" viewBox="0 0 126 38" fill="none" xmlns="http://www.w3.org/2000/svg">
<path d="M53.8919 21.2566C53.8919 21.8086 53.9225 22.2609 53.9839 22.6136C54.0452 22.9663 54.1679 23.2423 54.3519 23.4416C54.5512 23.6409 54.8195 23.7789 55.1569 23.8556C55.4942 23.9323 55.9389 23.9706 56.4909 23.9706C57.0275 23.9706 57.6409 23.9706 58.3309 23.9706C59.0209 23.9706 59.8719 23.9553 60.8839 23.9246L60.4239 26.2246C59.9945 26.2399 59.6112 26.2476 59.2739 26.2476C58.9365 26.2629 58.6069 26.2706 58.2849 26.2706C57.9782 26.2706 57.6715 26.2706 57.3649 26.2706C57.0582 26.2706 56.7209 26.2706 56.3529 26.2706C55.2642 26.2706 54.3672 26.1479 53.6619 25.9026C52.9565 25.6573 52.3969 25.3046 51.9829 24.8446C51.5842 24.3846 51.3005 23.8249 51.1319 23.1656C50.9785 22.4909 50.9019 21.7243 50.9019 20.8656V19.5776C50.9019 18.6576 50.9862 17.8449 51.1549 17.1396C51.3235 16.4343 51.6149 15.8439 52.0289 15.3686C52.4582 14.8779 53.0255 14.5099 53.7309 14.2646C54.4515 14.0193 55.3562 13.8966 56.4449 13.8966C57.4569 13.8966 58.2925 14.0116 58.9519 14.2416C59.6265 14.4563 60.1632 14.7629 60.5619 15.1616C60.9759 15.5603 61.2672 16.0356 61.4359 16.5876C61.6045 17.1243 61.6889 17.7146 61.6889 18.3586V18.7496C61.6889 19.2709 61.6582 19.7003 61.5969 20.0376C61.5355 20.3596 61.4282 20.6126 61.2749 20.7966C61.1369 20.9806 60.9529 21.1033 60.7229 21.1646C60.4929 21.2259 60.2092 21.2566 59.8719 21.2566H53.8919ZM56.3759 16.1506C55.8545 16.1506 55.4329 16.1966 55.1109 16.2886C54.7889 16.3653 54.5359 16.5186 54.3519 16.7486C54.1679 16.9633 54.0452 17.2623 53.9839 17.6456C53.9225 18.0136 53.8919 18.4889 53.8919 19.0716H58.8369V18.5426C58.8369 18.0979 58.7985 17.7223 58.7219 17.4156C58.6452 17.1089 58.5149 16.8636 58.3309 16.6796C58.1469 16.4956 57.8939 16.3653 57.5719 16.2886C57.2499 16.1966 56.8512 16.1506 56.3759 16.1506ZM70.0334 14.2646L69.5734 16.7256H66.3074V26.2246H63.3174V14.6326C63.3174 13.6053 63.417 12.7389 63.6164 12.0336C63.8157 11.3283 64.1377 10.7609 64.5824 10.3316C65.0424 9.88694 65.6327 9.57261 66.3534 9.38861C67.0894 9.18927 67.9864 9.08961 69.0444 9.08961C69.2744 9.08961 69.512 9.08961 69.7574 9.08961C70.018 9.08961 70.386 9.10494 70.8614 9.13561L70.4014 11.5966C70.2327 11.5813 70.018 11.5736 69.7574 11.5736C69.512 11.5583 69.282 11.5506 69.0674 11.5506C68.5614 11.5506 68.132 11.5889 67.7794 11.6656C67.4267 11.7269 67.143 11.8573 66.9284 12.0566C66.7137 12.2559 66.5604 12.5319 66.4684 12.8846C66.3764 13.2373 66.3227 13.6973 66.3074 14.2646H70.0334ZM78.0374 14.2646L77.5544 16.7256H74.1274V26.2246H71.1374V14.6326C71.1374 13.6053 71.237 12.7389 71.4364 12.0336C71.6357 11.3283 71.9577 10.7609 72.4024 10.3316C72.8624 9.88694 73.4527 9.57261 74.1734 9.38861C74.9094 9.18927 75.8064 9.08961 76.8644 9.08961C77.125 9.08961 77.4394 9.09727 77.8074 9.11261C78.1754 9.11261 78.551 9.12028 78.9344 9.13561L78.4744 11.5966C78.2597 11.5813 78.022 11.5736 77.7614 11.5736C77.5007 11.5583 77.2094 11.5506 76.8874 11.5506C76.3814 11.5506 75.952 11.5889 75.5994 11.6656C75.2467 11.7269 74.963 11.8573 74.7484 12.0566C74.5337 12.2559 74.3804 12.5319 74.2884 12.8846C74.1964 13.2373 74.1427 13.6973 74.1274 14.2646H78.0374ZM83.9198 13.8966C84.9471 13.8966 85.8211 13.9886 86.5418 14.1726C87.2625 14.3566 87.8528 14.6709 88.3128 15.1156C88.7728 15.5449 89.1025 16.1276 89.3018 16.8636C89.5165 17.5996 89.6238 18.5196 89.6238 19.6236V20.8656C89.6238 21.9696 89.5165 22.8896 89.3018 23.6256C89.1025 24.3616 88.7728 24.9519 88.3128 25.3966C87.8528 25.8259 87.2625 26.1326 86.5418 26.3166C85.8211 26.5006 84.9471 26.5926 83.9198 26.5926C82.8771 26.5926 81.9955 26.5006 81.2748 26.3166C80.5541 26.1326 79.9638 25.8259 79.5038 25.3966C79.0438 24.9519 78.7065 24.3616 78.4918 23.6256C78.2925 22.8896 78.1928 21.9696 78.1928 20.8656V19.6236C78.1928 18.5196 78.2925 17.5996 78.4918 16.8636C78.7065 16.1276 79.0438 15.5449 79.5038 15.1156C79.9638 14.6709 80.5541 14.3566 81.2748 14.1726C81.9955 13.9886 82.8771 13.8966 83.9198 13.8966ZM86.5878 19.5776C86.5878 18.8723 86.5495 18.3049 86.4728 17.8756C86.3961 17.4309 86.2581 17.0936 86.0588 16.8636C85.8748 16.6336 85.6065 16.4803 85.2538 16.4036C84.9165 16.3269 84.4718 16.2886 83.9198 16.2886C83.3678 16.2886 82.9155 16.3269 82.5628 16.4036C82.2101 16.4803 81.9341 16.6336 81.7348 16.8636C81.5508 17.0936 81.4205 17.4309 81.3438 17.8756C81.2671 18.3049 81.2288 18.8723 81.2288 19.5776V20.9346C81.2288 21.6399 81.2671 22.2073 81.3438 22.6366C81.4205 23.0659 81.5508 23.3956 81.7348 23.6256C81.9341 23.8556 82.2101 24.0089 82.5628 24.0856C82.9155 24.1623 83.3678 24.2006 83.9198 24.2006C84.4718 24.2006 84.9165 24.1623 85.2538 24.0856C85.6065 24.0089 85.8748 23.8556 86.0588 23.6256C86.2581 23.3956 86.3961 23.0659 86.4728 22.6366C86.5495 22.2073 86.5878 21.6399 86.5878 20.9346V19.5776ZM94.362 26.2246H91.372V18.3586C91.372 17.5919 91.4793 16.9479 91.694 16.4266C91.9087 15.8899 92.223 15.4606 92.637 15.1386C93.051 14.8166 93.557 14.5866 94.155 14.4486C94.753 14.2953 95.4353 14.2186 96.202 14.2186C96.7847 14.2186 97.283 14.2186 97.697 14.2186C98.111 14.2186 98.5173 14.2263 98.916 14.2416L98.433 16.7256C98.1263 16.7103 97.789 16.7026 97.421 16.7026C97.053 16.6873 96.7463 16.6796 96.501 16.6796C96.0103 16.6796 95.627 16.7256 95.351 16.8176C95.075 16.9096 94.8603 17.0476 94.707 17.2316C94.5537 17.4003 94.454 17.6226 94.408 17.8986C94.3773 18.1593 94.362 18.4736 94.362 18.8416V26.2246ZM106.454 26.2246H104.591C103.625 26.2246 102.828 26.1556 102.199 26.0176C101.586 25.8796 101.095 25.6419 100.727 25.3046C100.374 24.9519 100.129 24.4843 99.9911 23.9016C99.8531 23.3189 99.7841 22.5906 99.7841 21.7166V11.4816L102.774 10.9986V14.2646H107.075L106.592 16.7256H102.774V21.5556C102.774 22.0156 102.797 22.3913 102.843 22.6826C102.904 22.9739 103.004 23.2039 103.142 23.3726C103.295 23.5259 103.502 23.6333 103.763 23.6946C104.039 23.7406 104.384 23.7636 104.798 23.7636H106.937L106.454 26.2246ZM111.001 21.2566C111.001 21.8086 111.032 22.2609 111.093 22.6136C111.154 22.9663 111.277 23.2423 111.461 23.4416C111.66 23.6409 111.929 23.7789 112.266 23.8556C112.603 23.9323 113.048 23.9706 113.6 23.9706C114.137 23.9706 114.75 23.9706 115.44 23.9706C116.13 23.9706 116.981 23.9553 117.993 23.9246L117.533 26.2246C117.104 26.2399 116.72 26.2476 116.383 26.2476C116.046 26.2629 115.716 26.2706 115.394 26.2706C115.087 26.2706 114.781 26.2706 114.474 26.2706C114.167 26.2706 113.83 26.2706 113.462 26.2706C112.373 26.2706 111.476 26.1479 110.771 25.9026C110.066 25.6573 109.506 25.3046 109.092 24.8446C108.693 24.3846 108.41 23.8249 108.241 23.1656C108.088 22.4909 108.011 21.7243 108.011 20.8656V19.5776C108.011 18.6576 108.095 17.8449 108.264 17.1396C108.433 16.4343 108.724 15.8439 109.138 15.3686C109.567 14.8779 110.135 14.5099 110.84 14.2646C111.561 14.0193 112.465 13.8966 113.554 13.8966C114.566 13.8966 115.402 14.0116 116.061 14.2416C116.736 14.4563 117.272 14.7629 117.671 15.1616C118.085 15.5603 118.376 16.0356 118.545 16.5876C118.714 17.1243 118.798 17.7146 118.798 18.3586V18.7496C118.798 19.2709 118.767 19.7003 118.706 20.0376C118.645 20.3596 118.537 20.6126 118.384 20.7966C118.246 20.9806 118.062 21.1033 117.832 21.1646C117.602 21.2259 117.318 21.2566 116.981 21.2566H111.001ZM113.485 16.1506C112.964 16.1506 112.542 16.1966 112.22 16.2886C111.898 16.3653 111.645 16.5186 111.461 16.7486C111.277 16.9633 111.154 17.2623 111.093 17.6456C111.032 18.0136 111.001 18.4889 111.001 19.0716H115.946V18.5426C115.946 18.0979 115.908 17.7223 115.831 17.4156C115.754 17.1089 115.624 16.8636 115.44 16.6796C115.256 16.4956 115.003 16.3653 114.681 16.2886C114.359 16.1966 113.96 16.1506 113.485 16.1506ZM120.427 9.13561H123.417V26.2246H120.427V9.13561Z" fill="#FAFAFA"/>
<rect x="3.66895" y="4.20703" width="28.662" height="26.8308" fill="#252829"/>
<path fill-rule="evenodd" clip-rule="evenodd" d="M7.36248 0C3.2963 0 0 3.29629 0 7.36246V30.6373C0 34.7035 3.2963 37.9998 7.36248 37.9998H30.6375C34.7035 37.9998 38 34.7035 38 30.6373V7.36246C38 3.29629 34.7035 0 30.6375 0H7.36248ZM16.3694 10.45C16.3694 8.87595 17.6453 7.59996 19.2194 7.59996H27.55C29.1242 7.59996 30.4 8.87595 30.4 10.45V18.7807C30.4 20.3547 29.1242 21.6307 27.55 21.6307H19.5983C17.8704 21.6307 16.459 22.9748 16.3692 24.6599V28.5C16.3692 29.5493 15.5185 30.4 14.4692 30.4H9.49997C8.45063 30.4 7.59998 29.5493 7.59998 28.5V23.5307C7.59998 22.4814 8.45063 21.6307 9.49997 21.6307L13.1404 21.6302C14.9232 21.6302 16.3694 20.2024 16.3694 18.441V10.45Z" fill="#66E8FA"/>
</svg>
