<svg xmlns="http://www.w3.org/2000/svg" xmlns:xlink="http://www.w3.org/1999/xlink" viewBox="0 0 254 56" width="254" height="56" preserveAspectRatio="xMidYMid meet" style="width: 100%; height: 100%; transform: translate3d(0px, 0px, 0px); content-visibility: visible;" data-fc-idx="0"><defs><clipPath id="__lottie_element_139"><rect width="254" height="56" x="0" y="0"/></clipPath><clipPath id="__lottie_element_141"><path d="M0,0 L254,0 L254,56 L0,56z"/></clipPath><clipPath id="__lottie_element_146"><path d="M0,0 L161,0 L161,44 L0,44z"/></clipPath><clipPath id="__lottie_element_151"><path d="M0,0 L59,0 L59,35 L0,35z"/></clipPath><clipPath id="__lottie_element_186"><path d="M0,0 L59,0 L59,35 L0,35z"/></clipPath><clipPath id="__lottie_element_190"><path d="M0,0 L59,0 L59,35 L0,35z"/></clipPath><g id="__lottie_element_193"><g transform="matrix(1,0,0,1,0,1)" opacity="1" style="display: block; opacity: 1 !important;"><g opacity="1" transform="matrix(1,0,0,1,0,0)" style="opacity: 1 !important;"><g opacity="1" transform="matrix(1,0,0,1,29.309999465942383,16.889999389648438)" style="opacity: 1 !important;"><path fill="rgb(0,0,0)" fill-opacity="1" d=" M29.315000534057617,-16.889999389648438 C29.315000534057617,-16.889999389648438 29.315000534057617,16.889999389648438 29.315000534057617,16.889999389648438 C29.315000534057617,16.889999389648438 -29.315000534057617,16.889999389648438 -29.315000534057617,16.889999389648438 C-29.315000534057617,16.889999389648438 -29.315000534057617,-16.889999389648438 -29.315000534057617,-16.889999389648438 C-29.315000534057617,-16.889999389648438 29.315000534057617,-16.889999389648438 29.315000534057617,-16.889999389648438z" style="fill: rgb(0, 0, 0) !important; fill-opacity: 1 !important;"/></g></g></g></g><mask id="__lottie_element_193_1" mask-type="alpha"><g id="__lottie_element_193"><g transform="matrix(1,0,0,1,0,1)" opacity="1" style="display: block;"><g opacity="1" transform="matrix(1,0,0,1,0,0)"><g opacity="1" transform="matrix(1,0,0,1,29.309999465942383,16.889999389648438)"><path fill="rgb(0,0,0)" fill-opacity="1" d=" M29.315000534057617,-16.889999389648438 C29.315000534057617,-16.889999389648438 29.315000534057617,16.889999389648438 29.315000534057617,16.889999389648438 C29.315000534057617,16.889999389648438 -29.315000534057617,16.889999389648438 -29.315000534057617,16.889999389648438 C-29.315000534057617,16.889999389648438 -29.315000534057617,-16.889999389648438 -29.315000534057617,-16.889999389648438 C-29.315000534057617,-16.889999389648438 29.315000534057617,-16.889999389648438 29.315000534057617,-16.889999389648438z"/></g></g></g></g></mask></defs><g clip-path="url(#__lottie_element_139)"><g clip-path="url(#__lottie_element_141)" transform="matrix(1,0,0,1,0,0)" opacity="1" style="display: block; opacity: 1 !important;"><g transform="matrix(1,0,0,1,0,0)" opacity="1" style="display: block; opacity: 1 !important;"><g opacity="1" transform="matrix(1,0,0,1,41.119998931884766,0)" style="opacity: 1 !important;"><path fill="rgb(13,13,13)" fill-opacity="1" d=" M28,56 C12.53600025177002,56 0,43.4640007019043 0,28 C0,12.53600025177002 12.53600025177002,0 28,0 C28,18.66699981689453 28,37.33300018310547 28,56 C28,56 28,56 28,56z" style="fill: rgb(13, 13, 13) !important; fill-opacity: 1 !important;"/></g></g><g transform="matrix(1,0,0,1,0,0)" opacity="1" style="display: block; opacity: 1 !important;"><g opacity="1" transform="matrix(1,0,0,1,20.1200008392334,0)" style="opacity: 1 !important;"><path fill="rgb(13,13,13)" fill-opacity="1" d=" M21,56 C9.402000427246094,56 0,43.4640007019043 0,28 C0,12.53600025177002 9.402000427246094,0 21,0 C21,18.66699981689453 21,37.33300018310547 21,56 C21,56 21,56 21,56z" style="fill: rgb(13, 13, 13) !important; fill-opacity: 1 !important;"/></g></g><g transform="matrix(1,0,0,1,0,0)" opacity="1" style="display: block; opacity: 1 !important;"><g opacity="1" transform="matrix(1,0,0,1,9.119999885559082,0)" style="opacity: 1 !important;"><path fill="rgb(13,13,13)" fill-opacity="1" d=" M11,56 C4.925000190734863,56 0,43.4640007019043 0,28 C0,12.53600025177002 4.925000190734863,0 11,0 C11,18.66699981689453 11,37.33300018310547 11,56 C11,56 11,56 11,56z" style="fill: rgb(13, 13, 13) !important; fill-opacity: 1 !important;"/></g></g></g><g clip-path="url(#__lottie_element_146)" transform="matrix(1,0,0,1,79.77999877929688,11.139999389648438)" opacity="1" style="display: block; opacity: 1 !important;"><g transform="matrix(1,0,0,1,1,0)" opacity="1" style="display: block; opacity: 1 !important;"><g opacity="1" transform="matrix(1,0,0,1,0,0.4699993133544922)" style="opacity: 1 !important;"><g opacity="1" transform="matrix(1,0,0,1,0,0)" style="opacity: 1 !important;"><path fill="rgb(13,13,13)" fill-opacity="1" d=" M16.719999313354492,33.83000183105469 C14.385000228881836,33.83000183105469 12.204000473022461,33.39699935913086 10.180000305175781,32.52000045776367 C8.154999732971191,31.64299964904785 6.385000228881836,30.42099952697754 4.860000133514404,28.8700008392334 C3.3340001106262207,27.319000244140625 2.135999917984009,25.52199935913086 1.2799999713897705,23.469999313354492 C0.4230000078678131,21.41900062561035 0,19.2189998626709 0,16.8700008392334 C0,14.520999908447266 0.4230000078678131,12.32699966430664 1.2799999713897705,10.289999961853027 C2.135999917984009,8.253999710083008 3.319000005722046,6.460999965667725 4.829999923706055,4.909999847412109 C6.340000152587891,3.3589999675750732 8.10200023651123,2.1519999504089355 10.109999656677246,1.2899999618530273 C12.119000434875488,0.42899999022483826 14.295000076293945,0 16.6299991607666,0 C18.965999603271484,0 21.131999969482422,0.42899999022483826 23.139999389648438,1.2899999618530273 C25.14900016784668,2.1519999504089355 26.923999786376953,3.359999895095825 28.450000762939453,4.909999847412109 C29.975000381469727,6.460999965667725 31.163000106811523,8.258999824523926 32.02000045776367,10.3100004196167 C32.875999450683594,12.362000465393066 33.29999923706055,14.560999870300293 33.29999923706055,16.90999984741211 C33.29999923706055,19.259000778198242 32.875999450683594,21.4689998626709 32.02000045776367,23.520000457763672 C31.163000106811523,25.57200050354004 29.979999542236328,27.365999221801758 28.469999313354492,28.899999618530273 C26.958999633789062,30.434999465942383 25.197999954223633,31.632999420166016 23.190000534057617,32.5099983215332 C21.180999755859375,33.387001037597656 19.024999618530273,33.83000183105469 16.719999313354492,33.83000183105469 C16.719999313354492,33.83000183105469 16.719999313354492,33.83000183105469 16.719999313354492,33.83000183105469 C16.719999313354492,33.83000183105469 16.719999313354492,33.83000183105469 16.719999313354492,33.83000183105469z M16.6299991607666,28.65999984741211 C18.840999603271484,28.65999984741211 20.77400016784668,28.163000106811523 22.440000534057617,27.15999984741211 C24.104999542236328,26.158000946044922 25.41900062561035,24.770000457763672 26.3700008392334,23 C27.31999969482422,21.231000900268555 27.790000915527344,19.18899917602539 27.790000915527344,16.8700008392334 C27.790000915527344,15.147000312805176 27.524999618530273,13.576000213623047 26.979999542236328,12.149999618530273 C26.434999465942383,10.725000381469727 25.6560001373291,9.479999542236328 24.65999984741211,8.430000305175781 C23.663000106811523,7.38100004196167 22.493999481201172,6.573999881744385 21.139999389648438,6.010000228881836 C19.78499984741211,5.446000099182129 18.2810001373291,5.170000076293945 16.6299991607666,5.170000076293945 C14.449999809265137,5.170000076293945 12.524999618530273,5.663000106811523 10.859999656677246,6.650000095367432 C9.194000244140625,7.63700008392334 7.889999866485596,9.005999565124512 6.940000057220459,10.760000228881836 C5.989999771118164,12.515000343322754 5.510000228881836,14.552000045776367 5.510000228881836,16.8700008392334 C5.510000228881836,18.593000411987305 5.784999847412109,20.18400001525879 6.329999923706055,21.639999389648438 C6.874000072479248,23.097000122070312 7.638999938964844,24.336000442504883 8.619999885559082,25.3700008392334 C9.60099983215332,26.40399932861328 10.769000053405762,27.211000442504883 12.140000343322754,27.790000915527344 C13.510000228881836,28.3700008392334 15.01099967956543,28.65999984741211 16.6299991607666,28.65999984741211 C16.6299991607666,28.65999984741211 16.6299991607666,28.65999984741211 16.6299991607666,28.65999984741211 C16.6299991607666,28.65999984741211 16.6299991607666,28.65999984741211 16.6299991607666,28.65999984741211z" style="fill: rgb(13, 13, 13) !important; fill-opacity: 1 !important;"/><g opacity="1" transform="matrix(1,0,0,1,0,0)" style="opacity: 1 !important;"/><g opacity="1" transform="matrix(1,0,0,1,0,0)" style="opacity: 1 !important;"/></g></g></g><g transform="matrix(1,0,0,1,1,0)" opacity="1" style="display: block; opacity: 1 !important;"><g opacity="1" transform="matrix(1,0,0,1,37.12999725341797,10.810001373291016)" style="opacity: 1 !important;"><g opacity="1" transform="matrix(1,0,0,1,0,0)" style="opacity: 1 !important;"><path fill="rgb(13,13,13)" fill-opacity="1" d=" M0,32.41999816894531 C0,21.768999099731445 0,11.121000289916992 0,0.4699999988079071 C1.7130000591278076,0.4699999988079071 3.427000045776367,0.4699999988079071 5.139999866485596,0.4699999988079071 C5.139999866485596,2.490000009536743 5.139999866485596,4.510000228881836 5.139999866485596,6.53000020980835 C4.843999862670898,8.362000465393066 4.546000003814697,10.197999954223633 4.25,12.029999732971191 C4.546000003814697,13.847000122070312 4.843999862670898,15.663000106811523 5.139999866485596,17.479999542236328 C5.139999866485596,22.461000442504883 5.139999866485596,27.43899917602539 5.139999866485596,32.41999816894531 C3.427000045776367,32.41999816894531 1.7130000591278076,32.41999816894531 0,32.41999816894531 C0,32.41999816894531 0,32.41999816894531 0,32.41999816894531 C0,32.41999816894531 0,32.41999816894531 0,32.41999816894531z M12,23.489999771118164 C10.286999702453613,23.489999771118164 8.769000053405762,23.125999450683594 7.429999828338623,22.389999389648438 C6.091000080108643,21.65399932861328 5.0329999923706055,20.645000457763672 4.269999980926514,19.360000610351562 C3.50600004196167,18.076000213623047 3.130000114440918,16.618999481201172 3.130000114440918,14.989999771118164 C3.130000114440918,12.829000473022461 3.130000114440918,10.66100025177002 3.130000114440918,8.5 C3.130000114440918,6.870999813079834 3.5209999084472656,5.425000190734863 4.300000190734863,4.139999866485596 C5.078000068664551,2.8559999465942383 6.130000114440918,1.8359999656677246 7.46999979019165,1.100000023841858 C8.807999610900879,0.36399999260902405 10.317999839782715,0 12,0 C14.02400016784668,0 15.854999542236328,0.5210000276565552 17.489999771118164,1.5700000524520874 C19.125,2.619999885559082 20.420000076293945,4.031000137329102 21.3700008392334,5.800000190734863 C22.31999969482422,7.570000171661377 22.790000915527344,9.565999984741211 22.790000915527344,11.789999961853027 C22.790000915527344,13.982999801635742 22.31999969482422,15.970999717712402 21.3700008392334,17.739999771118164 C20.420000076293945,19.510000228881836 19.125,20.9060001373291 17.489999771118164,21.940000534057617 C15.854999542236328,22.974000930786133 14.02400016784668,23.489999771118164 12,23.489999771118164 C12,23.489999771118164 12,23.489999771118164 12,23.489999771118164 C12,23.489999771118164 12,23.489999771118164 12,23.489999771118164z M11.15999984741211,18.610000610351562 C12.404999732971191,18.610000610351562 13.508999824523926,18.31999969482422 14.460000038146973,17.739999771118164 C15.40999984741211,17.160999298095703 16.155000686645508,16.354000091552734 16.700000762939453,15.319999694824219 C17.243999481201172,14.28600025177002 17.520000457763672,13.097000122070312 17.520000457763672,11.75 C17.520000457763672,10.402999877929688 17.243999481201172,9.21399974822998 16.700000762939453,8.180000305175781 C16.155000686645508,7.145999908447266 15.409000396728516,6.340000152587891 14.460000038146973,5.760000228881836 C13.508999824523926,5.181000232696533 12.404999732971191,4.889999866485596 11.15999984741211,4.889999866485596 C9.914999961853027,4.889999866485596 8.8149995803833,5.181000232696533 7.849999904632568,5.760000228881836 C6.883999824523926,6.340000152587891 6.138999938964844,7.145999908447266 5.610000133514404,8.180000305175781 C5.079999923706055,9.21399974822998 4.809999942779541,10.402999877929688 4.809999942779541,11.75 C4.809999942779541,13.097000122070312 5.079999923706055,14.28600025177002 5.610000133514404,15.319999694824219 C6.138999938964844,16.354000091552734 6.883999824523926,17.160999298095703 7.849999904632568,17.739999771118164 C8.814000129699707,18.31999969482422 9.913999557495117,18.610000610351562 11.15999984741211,18.610000610351562 C11.15999984741211,18.610000610351562 11.15999984741211,18.610000610351562 11.15999984741211,18.610000610351562 C11.15999984741211,18.610000610351562 11.15999984741211,18.610000610351562 11.15999984741211,18.610000610351562z" style="fill: rgb(13, 13, 13) !important; fill-opacity: 1 !important;"/><g opacity="1" transform="matrix(1,0,0,1,0,0)" style="opacity: 1 !important;"/><g opacity="1" transform="matrix(1,0,0,1,0,0)" style="opacity: 1 !important;"/><g opacity="1" transform="matrix(1,0,0,1,0,0)" style="opacity: 1 !important;"/></g></g></g><g transform="matrix(1,0,0,1,1,0)" opacity="1" style="display: block; opacity: 1 !important;"><g opacity="1" transform="matrix(1,0,0,1,60.68000411987305,1.8800010681152344)" style="opacity: 1 !important;"><g opacity="1" transform="matrix(1,0,0,1,0,0)" style="opacity: 1 !important;"><path fill="rgb(13,13,13)" fill-opacity="1" d=" M0,14.100000381469727 C0,12.534000396728516 0,10.965999603271484 0,9.399999618530273 C5.294000148773193,9.399999618530273 10.586000442504883,9.399999618530273 15.880000114440918,9.399999618530273 C15.880000114440918,10.965999603271484 15.880000114440918,12.534000396728516 15.880000114440918,14.100000381469727 C10.586000442504883,14.100000381469727 5.294000148773193,14.100000381469727 0,14.100000381469727 C0,14.100000381469727 0,14.100000381469727 0,14.100000381469727 C0,14.100000381469727 0,14.100000381469727 0,14.100000381469727z M5.369999885559082,31.950000762939453 C5.369999885559082,21.298999786376953 5.369999885559082,10.651000022888184 5.369999885559082,0 C7.083000183105469,0 8.79699993133545,0 10.510000228881836,0 C10.510000228881836,10.651000022888184 10.510000228881836,21.298999786376953 10.510000228881836,31.950000762939453 C8.79699993133545,31.950000762939453 7.083000183105469,31.950000762939453 5.369999885559082,31.950000762939453 C5.369999885559082,31.950000762939453 5.369999885559082,31.950000762939453 5.369999885559082,31.950000762939453 C5.369999885559082,31.950000762939453 5.369999885559082,31.950000762939453 5.369999885559082,31.950000762939453z" style="fill: rgb(13, 13, 13) !important; fill-opacity: 1 !important;"/><g opacity="1" transform="matrix(1,0,0,1,0,0)" style="opacity: 1 !important;"/><g opacity="1" transform="matrix(1,0,0,1,0,0)" style="opacity: 1 !important;"/></g></g></g><g transform="matrix(1,0,0,1,1,0)" opacity="1" style="display: block; opacity: 1 !important;"><g opacity="1" transform="matrix(1,0,0,1,78.94000244140625,0.9399986267089844)" style="opacity: 1 !important;"><g opacity="1" transform="matrix(1,0,0,1,0,0)" style="opacity: 1 !important;"><path fill="rgb(13,13,13)" fill-opacity="1" d=" M3.0399999618530273,6.199999809265137 C2.1679999828338623,6.199999809265137 1.4359999895095825,5.90500020980835 0.8600000143051147,5.309999942779541 C0.28299999237060547,4.715000152587891 0,3.9779999256134033 0,3.0999999046325684 C0,2.2230000495910645 0.28299999237060547,1.4850000143051147 0.8600000143051147,0.8899999856948853 C1.4359999895095825,0.29600000381469727 2.1679999828338623,0 3.0399999618530273,0 C3.943000078201294,0 4.669000148773193,0.29499998688697815 5.230000019073486,0.8899999856948853 C5.790999889373779,1.4850000143051147 6.070000171661377,2.2230000495910645 6.070000171661377,3.0999999046325684 C6.070000171661377,3.9769999980926514 5.790999889373779,4.715000152587891 5.230000019073486,5.309999942779541 C4.669000148773193,5.90500020980835 3.941999912261963,6.199999809265137 3.0399999618530273,6.199999809265137 C3.0399999618530273,6.199999809265137 3.0399999618530273,6.199999809265137 3.0399999618530273,6.199999809265137 C3.0399999618530273,6.199999809265137 3.0399999618530273,6.199999809265137 3.0399999618530273,6.199999809265137z M0.4699999988079071,32.88999938964844 C0.4699999988079071,25.371999740600586 0.4699999988079071,17.857999801635742 0.4699999988079071,10.34000015258789 C2.183000087738037,10.34000015258789 3.8970000743865967,10.34000015258789 5.610000133514404,10.34000015258789 C5.610000133514404,17.857999801635742 5.610000133514404,25.371999740600586 5.610000133514404,32.88999938964844 C3.8970000743865967,32.88999938964844 2.183000087738037,32.88999938964844 0.4699999988079071,32.88999938964844 C0.4699999988079071,32.88999938964844 0.4699999988079071,32.88999938964844 0.4699999988079071,32.88999938964844 C0.4699999988079071,32.88999938964844 0.4699999988079071,32.88999938964844 0.4699999988079071,32.88999938964844z" style="fill: rgb(13, 13, 13) !important; fill-opacity: 1 !important;"/><g opacity="1" transform="matrix(1,0,0,1,0,0)" style="opacity: 1 !important;"/><g opacity="1" transform="matrix(1,0,0,1,0,0)" style="opacity: 1 !important;"/></g></g></g><g transform="matrix(1,0,0,1,1,0)" opacity="1" style="display: block; opacity: 1 !important;"><g opacity="1" transform="matrix(1,0,0,1,89.36000061035156,10.809999465942383)" style="opacity: 1 !important;"><g opacity="1" transform="matrix(1,0,0,1,0,0)" style="opacity: 1 !important;"><path fill="rgb(13,13,13)" fill-opacity="1" d=" M0,23.020000457763672 C0,15.501999855041504 0,7.98799991607666 0,0.4699999988079071 C1.7130000591278076,0.4699999988079071 3.427000045776367,0.4699999988079071 5.139999866485596,0.4699999988079071 C5.139999866485596,7.98799991607666 5.139999866485596,15.501999855041504 5.139999866485596,23.020000457763672 C3.427000045776367,23.020000457763672 1.7130000591278076,23.020000457763672 0,23.020000457763672 C0,23.020000457763672 0,23.020000457763672 0,23.020000457763672 C0,23.020000457763672 0,23.020000457763672 0,23.020000457763672z M14.899999618530273,23.020000457763672 C14.899999618530273,18.541000366210938 14.899999618530273,14.069000244140625 14.899999618530273,9.59000015258789 C14.899999618530273,8.086999893188477 14.4350004196167,6.909999847412109 13.5,6.079999923706055 C12.565999984741211,5.250999927520752 11.409000396728516,4.840000152587891 10.039999961853027,4.840000152587891 C9.105999946594238,4.840000152587891 8.272000312805176,5.02400016784668 7.539999961853027,5.400000095367432 C6.808000087738037,5.776000022888184 6.224999904632568,6.315000057220459 5.789999961853027,7.019999980926514 C5.353000164031982,7.724999904632568 5.139999866485596,8.588000297546387 5.139999866485596,9.59000015258789 C4.46999979019165,9.21399974822998 3.799999952316284,8.836000442504883 3.130000114440918,8.460000038146973 C3.130000114440918,6.736999988555908 3.502000093460083,5.243000030517578 4.25,3.990000009536743 C4.998000144958496,2.73799991607666 6.013000011444092,1.7649999856948853 7.289999961853027,1.059999942779541 C8.565999984741211,0.35499998927116394 9.991999626159668,0 11.579999923706055,0 C13.168000221252441,0 14.602999687194824,0.34200000762939453 15.880000114440918,1.0299999713897705 C17.1560001373291,1.718999981880188 18.17300033569336,2.697999954223633 18.920000076293945,3.950000047683716 C19.667999267578125,5.203000068664551 20.040000915527344,6.705999851226807 20.040000915527344,8.460000038146973 C20.040000915527344,13.3149995803833 20.040000915527344,18.165000915527344 20.040000915527344,23.020000457763672 C18.32699966430664,23.020000457763672 16.613000869750977,23.020000457763672 14.899999618530273,23.020000457763672 C14.899999618530273,23.020000457763672 14.899999618530273,23.020000457763672 14.899999618530273,23.020000457763672 C14.899999618530273,23.020000457763672 14.899999618530273,23.020000457763672 14.899999618530273,23.020000457763672z M29.799999237060547,23.020000457763672 C29.799999237060547,18.541000366210938 29.799999237060547,14.069000244140625 29.799999237060547,9.59000015258789 C29.799999237060547,8.086999893188477 29.333999633789062,6.909999847412109 28.399999618530273,6.079999923706055 C27.465999603271484,5.250999927520752 26.309999465942383,4.840000152587891 24.940000534057617,4.840000152587891 C24.03700065612793,4.840000152587891 23.216999053955078,5.02400016784668 22.469999313354492,5.400000095367432 C21.722000122070312,5.776000022888184 21.125999450683594,6.315000057220459 20.690000534057617,7.019999980926514 C20.253000259399414,7.724999904632568 20.040000915527344,8.588000297546387 20.040000915527344,9.59000015258789 C19.075000762939453,9.21399974822998 18.104999542236328,8.836000442504883 17.139999389648438,8.460000038146973 C17.295000076293945,6.736999988555908 17.798999786376953,5.243000030517578 18.639999389648438,3.990000009536743 C19.481000900268555,2.73799991607666 20.565000534057617,1.7649999856948853 21.889999389648438,1.059999942779541 C23.211999893188477,0.35499998927116394 24.66200065612793,0 26.25,0 C27.868999481201172,0 29.332000732421875,0.34200000762939453 30.639999389648438,1.0299999713897705 C31.947999954223633,1.718999981880188 32.992000579833984,2.697999954223633 33.77000045776367,3.950000047683716 C34.54800033569336,5.203000068664551 34.939998626708984,6.705999851226807 34.939998626708984,8.460000038146973 C34.939998626708984,13.3149995803833 34.939998626708984,18.165000915527344 34.939998626708984,23.020000457763672 C33.22700119018555,23.020000457763672 31.51300048828125,23.020000457763672 29.799999237060547,23.020000457763672 C29.799999237060547,23.020000457763672 29.799999237060547,23.020000457763672 29.799999237060547,23.020000457763672 C29.799999237060547,23.020000457763672 29.799999237060547,23.020000457763672 29.799999237060547,23.020000457763672z" style="fill: rgb(13, 13, 13) !important; fill-opacity: 1 !important;"/><g opacity="1" transform="matrix(1,0,0,1,0,0)" style="opacity: 1 !important;"/><g opacity="1" transform="matrix(1,0,0,1,0,0)" style="opacity: 1 !important;"/><g opacity="1" transform="matrix(1,0,0,1,0,0)" style="opacity: 1 !important;"/></g></g></g><g transform="matrix(1,0,0,1,1,0)" opacity="1" style="display: block; opacity: 1 !important;"><g opacity="1" transform="matrix(1,0,0,1,127.23999786376953,10.799999237060547)" style="opacity: 1 !important;"><g opacity="1" transform="matrix(1,0,0,1,0,0)" style="opacity: 1 !important;"><path fill="rgb(13,13,13)" fill-opacity="1" d=" M10.789999961853027,23.489999771118164 C8.765999794006348,23.489999771118164 6.934000015258789,22.974000930786133 5.300000190734863,21.940000534057617 C3.6649999618530273,20.9060001373291 2.378999948501587,19.510000228881836 1.4299999475479126,17.739999771118164 C0.4790000021457672,15.970999717712402 0,13.982999801635742 0,11.789999961853027 C0,9.565999984741211 0.4790000021457672,7.570000171661377 1.4299999475479126,5.800000190734863 C2.378999948501587,4.031000137329102 3.6640000343322754,2.619999885559082 5.300000190734863,1.5700000524520874 C6.934000015258789,0.5210000276565552 8.765999794006348,0 10.789999961853027,0 C12.503000259399414,0 14.015999794006348,0.36399999260902405 15.34000015258789,1.100000023841858 C16.663000106811523,1.8359999656677246 17.72100067138672,2.8559999465942383 18.5,4.139999866485596 C19.277999877929688,5.425000190734863 19.65999984741211,6.872000217437744 19.65999984741211,8.5 C19.65999984741211,10.66100025177002 19.65999984741211,12.829000473022461 19.65999984741211,14.989999771118164 C19.65999984741211,16.618999481201172 19.283000946044922,18.076000213623047 18.520000457763672,19.360000610351562 C17.756000518798828,20.645000457763672 16.708999633789062,21.65399932861328 15.369999885559082,22.389999389648438 C14.031000137329102,23.125999450683594 12.503000259399414,23.489999771118164 10.789999961853027,23.489999771118164 C10.789999961853027,23.489999771118164 10.789999961853027,23.489999771118164 10.789999961853027,23.489999771118164 C10.789999961853027,23.489999771118164 10.789999961853027,23.489999771118164 10.789999961853027,23.489999771118164z M11.630000114440918,18.610000610351562 C13.529999732971191,18.610000610351562 15.062000274658203,17.96500015258789 16.229999542236328,16.68000030517578 C17.39699935913086,15.395999908447266 17.979999542236328,13.755000114440918 17.979999542236328,11.75 C17.979999542236328,10.402999877929688 17.7189998626709,9.21399974822998 17.190000534057617,8.180000305175781 C16.65999984741211,7.145999908447266 15.918999671936035,6.340000152587891 14.970000267028809,5.760000228881836 C14.020000457763672,5.181000232696533 12.906999588012695,4.889999866485596 11.630000114440918,4.889999866485596 C10.383999824523926,4.889999866485596 9.289999961853027,5.181000232696533 8.34000015258789,5.760000228881836 C7.388999938964844,6.340000152587891 6.644000053405762,7.145999908447266 6.099999904632568,8.180000305175781 C5.554999828338623,9.21399974822998 5.28000020980835,10.402999877929688 5.28000020980835,11.75 C5.28000020980835,13.097000122070312 5.554999828338623,14.28600025177002 6.099999904632568,15.319999694824219 C6.644000053405762,16.354000091552734 7.389999866485596,17.160999298095703 8.34000015258789,17.739999771118164 C9.289999961853027,18.31999969482422 10.383999824523926,18.610000610351562 11.630000114440918,18.610000610351562 C11.630000114440918,18.610000610351562 11.630000114440918,18.610000610351562 11.630000114440918,18.610000610351562 C11.630000114440918,18.610000610351562 11.630000114440918,18.610000610351562 11.630000114440918,18.610000610351562z M17.65999984741211,23.020000457763672 C17.65999984741211,21 17.65999984741211,18.979999542236328 17.65999984741211,16.959999084472656 C17.95599937438965,15.128000259399414 18.243999481201172,13.302000045776367 18.540000915527344,11.470000267028809 C18.243999481201172,9.652999877929688 17.95599937438965,7.827000141143799 17.65999984741211,6.010000228881836 C17.65999984741211,4.1620001792907715 17.65999984741211,2.318000078201294 17.65999984741211,0.4699999988079071 C19.37299919128418,0.4699999988079071 21.07699966430664,0.4699999988079071 22.790000915527344,0.4699999988079071 C22.790000915527344,7.98799991607666 22.790000915527344,15.501999855041504 22.790000915527344,23.020000457763672 C21.07699966430664,23.020000457763672 19.37299919128418,23.020000457763672 17.65999984741211,23.020000457763672 C17.65999984741211,23.020000457763672 17.65999984741211,23.020000457763672 17.65999984741211,23.020000457763672 C17.65999984741211,23.020000457763672 17.65999984741211,23.020000457763672 17.65999984741211,23.020000457763672z" style="fill: rgb(13, 13, 13) !important; fill-opacity: 1 !important;"/><g opacity="1" transform="matrix(1,0,0,1,0,0)" style="opacity: 1 !important;"/><g opacity="1" transform="matrix(1,0,0,1,0,0)" style="opacity: 1 !important;"/><g opacity="1" transform="matrix(1,0,0,1,0,0)" style="opacity: 1 !important;"/></g></g></g><g transform="matrix(1,0,0,1,1,0)" opacity="1" style="display: block; opacity: 1 !important;"><g opacity="1" transform="matrix(1,0,0,1,154.79998779296875,0)" style="opacity: 1 !important;"><path fill="rgb(13,13,13)" fill-opacity="1" d=" M0,33.83000183105469 C0,22.55299949645996 0,11.277000427246094 0,0 C1.7130000591278076,0 3.427000045776367,0 5.139999866485596,0 C5.139999866485596,11.277000427246094 5.139999866485596,22.55299949645996 5.139999866485596,33.83000183105469 C3.427000045776367,33.83000183105469 1.7130000591278076,33.83000183105469 0,33.83000183105469 C0,33.83000183105469 0,33.83000183105469 0,33.83000183105469 C0,33.83000183105469 0,33.83000183105469 0,33.83000183105469z" style="fill: rgb(13, 13, 13) !important; fill-opacity: 1 !important;"/></g></g></g><g clip-path="url(#__lottie_element_151)" transform="matrix(1,0,0,1,9.120000839233398,10.190000534057617)" opacity="0" style="display: block; opacity: 0 !important;"><g clip-path="url(#__lottie_element_186)" transform="matrix(1,0,0,1,0,0)" opacity="1" style="display: block; opacity: 1 !important;"><g mask="url(#__lottie_element_193_1)" style="display: block;"><g clip-path="url(#__lottie_element_190)" transform="matrix(1,0,0,1,0,0)" opacity="1" style="opacity: 1 !important;"><g transform="matrix(1,0,0,1,0,1)" opacity="1" style="display: block; opacity: 1 !important;"><path fill="rgb(0,0,0)" fill-opacity="0" d=" M59,-1 C59,-1 59,34 59,34 C59,34 0,34 0,34 C0,34 0,-1 0,-1 C0,-1 59,-1 59,-1z" style="fill: rgb(0, 0, 0) !important; fill-opacity: 0 !important;"/></g><g transform="matrix(1,0,0,1,0,1)" opacity="1" style="display: block; opacity: 1 !important;"><g opacity="1" transform="matrix(1,0,0,1,25.780000686645508,26.6200008392334)" style="opacity: 1 !important;"><path fill="rgb(13,13,13)" fill-opacity="1" d=" M0.9700000286102295,5.809999942779541 C1.6139999628067017,6.461999893188477 2.424999952316284,6.789999961853027 3.4000000953674316,6.789999961853027 C4.408999919891357,6.789999961853027 5.2230000495910645,6.461999893188477 5.849999904632568,5.809999942779541 C6.4770002365112305,5.158999919891357 6.789999961853027,4.360000133514404 6.789999961853027,3.4000000953674316 C6.789999961853027,2.440000057220459 6.4770002365112305,1.6319999694824219 5.849999904632568,0.9800000190734863 C5.2230000495910645,0.32899999618530273 4.408999919891357,0 3.4000000953674316,0 C2.424999952316284,0 1.6139999628067017,0.32899999618530273 0.9700000286102295,0.9800000190734863 C0.32499998807907104,1.6319999694824219 0,2.438999891281128 0,3.4000000953674316 C0,4.361000061035156 0.32499998807907104,5.158999919891357 0.9700000286102295,5.809999942779541 C0.9700000286102295,5.809999942779541 0.9700000286102295,5.809999942779541 0.9700000286102295,5.809999942779541 C0.9700000286102295,5.809999942779541 0.9700000286102295,5.809999942779541 0.9700000286102295,5.809999942779541z" style="fill: rgb(13, 13, 13) !important; fill-opacity: 1 !important;"/></g></g><g transform="matrix(1,0,0,1,0,1)" opacity="1" style="display: block; opacity: 1 !important;"><g opacity="1" transform="matrix(1,0,0,1,32.040000915527344,0)" style="opacity: 1 !important;"><g opacity="1" transform="matrix(1,0,0,1,0,0)" style="opacity: 1 !important;"><path fill="rgb(13,13,13)" fill-opacity="1" d=" M13.25,33.779998779296875 C4.9079999923706055,33.779998779296875 0,27.045000076293945 0,16.8700008392334 C0,6.741000175476074 4.9079999923706055,0 13.25,0 C21.63800048828125,0 26.579999923706055,6.695000171661377 26.579999923706055,16.8700008392334 C26.579999923706055,27.090999603271484 21.63800048828125,33.779998779296875 13.25,33.779998779296875 C13.25,33.779998779296875 13.25,33.779998779296875 13.25,33.779998779296875 C13.25,33.779998779296875 13.25,33.779998779296875 13.25,33.779998779296875z M13.25,28.3700008392334 C17.878999710083008,28.3700008392334 20.299999237060547,23.974000930786133 20.299999237060547,16.8700008392334 C20.299999237060547,9.812000274658203 17.878999710083008,5.360000133514404 13.25,5.360000133514404 C8.666999816894531,5.360000133514404 6.230000019073486,9.765999794006348 6.230000019073486,16.8700008392334 C6.230000019073486,24.020000457763672 8.666999816894531,28.3700008392334 13.25,28.3700008392334 C13.25,28.3700008392334 13.25,28.3700008392334 13.25,28.3700008392334 C13.25,28.3700008392334 13.25,28.3700008392334 13.25,28.3700008392334z" style="fill: rgb(13, 13, 13) !important; fill-opacity: 1 !important;"/><g opacity="1" transform="matrix(1,0,0,1,0,0)" style="opacity: 1 !important;"/><g opacity="1" transform="matrix(1,0,0,1,0,0)" style="opacity: 1 !important;"/></g></g></g><g transform="matrix(1,0,0,1,0,1)" opacity="1" style="display: block; opacity: 1 !important;"><g opacity="1" transform="matrix(1,0,0,1,0,0)" style="opacity: 1 !important;"><path fill="rgb(13,13,13)" fill-opacity="1" d=" M12.239999771118164,33.779998779296875 C5.364999771118164,33.779998779296875 0,29.743999481201172 0,22.959999084472656 C2.0929999351501465,22.959999084472656 4.186999797821045,22.959999084472656 6.28000020980835,22.959999084472656 C6.28000020980835,26.260000228881836 8.706999778747559,28.3700008392334 12.1899995803833,28.3700008392334 C15.628000259399414,28.3700008392334 18.100000381469727,26.496000289916992 18.100000381469727,23.700000762939453 C18.100000381469727,20.53700065612793 15.541000366210938,18.979999542236328 11.920000076293945,18.979999542236328 C11.064000129699707,18.979999542236328 10.206000328063965,18.979999542236328 9.350000381469727,18.979999542236328 C9.350000381469727,17.329999923706055 9.350000381469727,15.680000305175781 9.350000381469727,14.029999732971191 C9.991999626159668,14.029999732971191 10.637999534606934,14.029999732971191 11.279999732971191,14.029999732971191 C14.67199993133545,14.029999732971191 16.8700008392334,11.73799991607666 16.8700008392334,9.399999618530273 C16.8700008392334,7.107999801635742 14.85200023651123,5.360000133514404 12.010000228881836,5.360000133514404 C8.984999656677246,5.360000133514404 6.644000053405762,7.421999931335449 6.690000057220459,10.3100004196167 C4.64300012588501,10.3100004196167 2.5969998836517334,10.3100004196167 0.550000011920929,10.3100004196167 C0.5040000081062317,4.580999851226807 5.357999801635742,0 12.050000190734863,0 C18.375,0 23.100000381469727,3.7109999656677246 23.100000381469727,8.890000343322754 C23.100000381469727,12.32800006866455 20.714000701904297,15.586999893188477 17.459999084472656,16.31999969482422 C21.493000030517578,16.687000274658203 24.34000015258789,19.886999130249023 24.34000015258789,24.149999618530273 C24.34000015258789,29.742000579833984 19.253000259399414,33.779998779296875 12.239999771118164,33.779998779296875 C12.239999771118164,33.779998779296875 12.239999771118164,33.779998779296875 12.239999771118164,33.779998779296875 C12.239999771118164,33.779998779296875 12.239999771118164,33.779998779296875 12.239999771118164,33.779998779296875z" style="fill: rgb(13, 13, 13) !important; fill-opacity: 1 !important;"/></g></g></g></g></g></g></g></svg>