<svg viewBox="0 0 64 64" class="jsx-9f8a64868b4c38ca w-full h-full"><defs class="jsx-9f8a64868b4c38ca"><linearGradient id="fcd-gradient" x1="0%" y1="0%" x2="100%" y2="100%" class="jsx-9f8a64868b4c38ca"><stop offset="0%" stop-color="#2a5a5c" class="jsx-9f8a64868b4c38ca"></stop><stop offset="100%" stop-color="#3d7a2e" class="jsx-9f8a64868b4c38ca"></stop></linearGradient></defs><g stroke="#2a5a5c" stroke-width="1.2" stroke-opacity="0.4" class="jsx-9f8a64868b4c38ca"><line x1="32" y1="32" x2="14" y2="18" class="jsx-9f8a64868b4c38ca animate-line-pulse"></line><line x1="32" y1="32" x2="50" y2="18" class="jsx-9f8a64868b4c38ca animate-line-pulse-d1"></line><line x1="32" y1="32" x2="14" y2="46" class="jsx-9f8a64868b4c38ca animate-line-pulse-d2"></line><line x1="32" y1="32" x2="50" y2="46" class="jsx-9f8a64868b4c38ca animate-line-pulse-d3"></line><line x1="32" y1="32" x2="32" y2="8" class="jsx-9f8a64868b4c38ca animate-line-pulse-d1"></line><line x1="32" y1="32" x2="32" y2="56" class="jsx-9f8a64868b4c38ca animate-line-pulse-d2"></line><line x1="14" y1="18" x2="32" y2="8" class="jsx-9f8a64868b4c38ca"></line><line x1="50" y1="18" x2="32" y2="8" class="jsx-9f8a64868b4c38ca"></line><line x1="14" y1="46" x2="32" y2="56" class="jsx-9f8a64868b4c38ca"></line><line x1="50" y1="46" x2="32" y2="56" class="jsx-9f8a64868b4c38ca"></line></g><circle cx="32" cy="32" r="9" fill="url(#fcd-gradient)" class="jsx-9f8a64868b4c38ca animate-center-pulse"></circle><circle cx="32" cy="32" r="5" fill="none" stroke="white" stroke-width="1" stroke-opacity="0.5" class="jsx-9f8a64868b4c38ca"></circle><circle cx="32" cy="32" r="2" fill="white" fill-opacity="0.6" class="jsx-9f8a64868b4c38ca"></circle><g class="jsx-9f8a64868b4c38ca"><circle cx="14" cy="18" r="4" fill="#2a5a5c" class="jsx-9f8a64868b4c38ca animate-node-pulse" style="animation-delay: 0s;"></circle><circle cx="14" cy="18" r="1.6" fill="white" fill-opacity="0.4" class="jsx-9f8a64868b4c38ca"></circle></g><g class="jsx-9f8a64868b4c38ca"><circle cx="50" cy="18" r="4" fill="#2a5a5c" class="jsx-9f8a64868b4c38ca animate-node-pulse" style="animation-delay: 0.15s;"></circle><circle cx="50" cy="18" r="1.6" fill="white" fill-opacity="0.4" class="jsx-9f8a64868b4c38ca"></circle></g><g class="jsx-9f8a64868b4c38ca"><circle cx="14" cy="46" r="4" fill="#2a5a5c" class="jsx-9f8a64868b4c38ca animate-node-pulse" style="animation-delay: 0.3s;"></circle><circle cx="14" cy="46" r="1.6" fill="white" fill-opacity="0.4" class="jsx-9f8a64868b4c38ca"></circle></g><g class="jsx-9f8a64868b4c38ca"><circle cx="50" cy="46" r="4" fill="#2a5a5c" class="jsx-9f8a64868b4c38ca animate-node-pulse" style="animation-delay: 0.45s;"></circle><circle cx="50" cy="46" r="1.6" fill="white" fill-opacity="0.4" class="jsx-9f8a64868b4c38ca"></circle></g><g class="jsx-9f8a64868b4c38ca"><circle cx="32" cy="8" r="3.5" fill="#2a5a5c" class="jsx-9f8a64868b4c38ca animate-node-pulse" style="animation-delay: 0.6s;"></circle><circle cx="32" cy="8" r="1.4000000000000001" fill="white" fill-opacity="0.4" class="jsx-9f8a64868b4c38ca"></circle></g><g class="jsx-9f8a64868b4c38ca"><circle cx="32" cy="56" r="3.5" fill="#2a5a5c" class="jsx-9f8a64868b4c38ca animate-node-pulse" style="animation-delay: 0.75s;"></circle><circle cx="32" cy="56" r="1.4000000000000001" fill="white" fill-opacity="0.4" class="jsx-9f8a64868b4c38ca"></circle></g><g class="jsx-9f8a64868b4c38ca"><circle r="1.5" fill="#3d7a2e" class="jsx-9f8a64868b4c38ca animate-particle-1"></circle><circle r="1.5" fill="#3d7a2e" class="jsx-9f8a64868b4c38ca animate-particle-2"></circle></g></svg>