<svg xmlns="http://www.w3.org/2000/svg" width="161" height="28" viewBox="0 0 161 28" fill="none" class="h-6 w-auto"><g fill="currentColor" clip-path="url(#a)"><path fill-rule="evenodd" d="M53.967 5.124c4.541 0 6.925 4.205 5.354 10.12-.897 4.542-3.98 7.372-8.073 7.372-2.081 0-3.939-.79-5.04-2.212-.08-.103-.25-.07-.278.058l-1.663 7.422a.15.15 0 0 1-.146.116h-4.234a.149.149 0 0 1-.145-.184L44.184 9.47c.298-1.305.572-2.559.843-3.863a.149.149 0 0 1 .146-.118h3.848a.15.15 0 0 1 .147.177c-.09.472-.168.923-.253 1.376-.028.15.168.247.275.14 1.274-1.275 2.922-2.057 4.777-2.057Zm-1.654 3.112c-2.018 0-3.895 2.02-4.597 5.074-.953 3.728.562 6.223 2.832 6.223 1.99 0 3.784-1.962 4.428-4.96.982-3.729-.392-6.337-2.663-6.337Z" clip-rule="evenodd"></path><path d="M19.6.297c4.826 0 8.106 2.909 8.245 7.054a.429.429 0 0 1-.435.437h-3.773a.474.474 0 0 1-.463-.446c-.17-2.31-1.66-3.875-3.772-3.875-1.71 0-3.029.925-3.254 2.16-.336 1.486.785 2.609 3.702 3.702 4.826 1.88 6.51 4.461 5.583 8.164-.561 2.973-3.759 5.246-8.022 5.246-5.02 0-8.598-3.02-8.748-7.334a.429.429 0 0 1 .432-.438l3.75-.023a.47.47 0 0 1 .462.442c.204 2.643 1.988 4.156 4.302 4.156 2.076 0 3.283-1.01 3.48-2.188.42-1.767-.842-3.03-3.956-4.236-4.405-1.74-6.06-4.18-5.331-7.462.588-3.03 3.703-5.36 7.798-5.36Z"></path><path fill-rule="evenodd" d="M70.145 5.095c5.183 0 8.353 4.076 7.36 9.37a.436.436 0 0 1-.435.353l-11.697-.157a.427.427 0 0 0-.439.41c-.075 2.76 1.5 4.519 3.583 4.519 1.545 0 2.837-.861 3.683-2.388a.465.465 0 0 1 .41-.243l3.627.044a.427.427 0 0 1 .388.611c-1.558 3.173-4.393 5.088-8.246 5.088l-.002-.002c-5.635 0-8.942-4.402-7.456-10.148.925-4.374 4.682-7.457 9.224-7.457Zm-.226 3.084c-1.69 0-3.214 1.215-4.086 3.154-.125.278.083.581.388.588l6.59.144a.422.422 0 0 0 .437-.461c-.232-2.065-1.476-3.425-3.33-3.425ZM112.963 5.095c5.522.028 8.942 4.206 7.344 10.064-.869 4.29-4.401 7.541-8.802 7.541-5.55 0-8.999-4.373-7.373-10.372.869-4.12 4.374-7.233 8.831-7.233Zm-.028 3.224c-2.157 0-3.924 1.88-4.542 4.739-.952 3.7.506 6.419 3.114 6.419 2.075 0 3.813-2.019 4.485-5.046.925-3.589-.505-6.112-3.057-6.112Z" clip-rule="evenodd"></path><path d="M33.685 5.517c.096 0 .167.089.145.182L31.07 17.347c-.281 1.176.336 2.018 1.654 2.018 1.313 0 2.738-.639 3.385-1.947a.15.15 0 0 0 .011-.031L38.949 5.63a.148.148 0 0 1 .145-.113h4.263c.096 0 .167.089.145.182l-2.873 12.208a26.615 26.615 0 0 0-.826 4.24.15.15 0 0 1-.149.134h-3.682a.148.148 0 0 1-.147-.164c.037-.353.077-.718.135-1.096.02-.139-.148-.236-.259-.149-1.425 1.122-3.135 1.773-4.798 1.773H30.9c-3.476-.001-5.045-2.243-4.12-5.663l2.497-11.35a.149.149 0 0 1 .146-.115h4.262ZM96.42 5.095c4.097 0 6.915 2.378 7.136 5.473a.42.42 0 0 1-.429.442h-3.4c-.247 0-.444-.2-.471-.445-.178-1.6-1.322-2.64-2.892-2.64-1.233 0-2.215.619-2.354 1.543-.225 1.093.589 1.878 3.027 2.747 3.813 1.401 5.214 3.338 4.542 6.169-.448 2.58-3.141 4.26-6.645 4.26-4.242 0-7.122-2.24-7.307-5.533a.423.423 0 0 1 .43-.438h3.348c.246 0 .442.2.472.444.194 1.613 1.451 2.723 3.226 2.723 1.29 0 2.215-.617 2.383-1.541.225-1.122-.617-2.02-3.056-2.916-3.7-1.515-5.102-3.421-4.513-6.028.45-2.55 3.084-4.26 6.504-4.26ZM89.539 5.277a.412.412 0 0 1 .372.524l-.727 2.858a.49.49 0 0 1-.53.353 11.8 11.8 0 0 0-1.173-.047c-1.934 0-3.252.56-3.672 2.047l-2.665 10.93a.445.445 0 0 1-.432.34l-3.568-.002c-.288 0-.5-.27-.432-.55l3.847-15.875c.049-.2.228-.34.434-.34h3.194c.292 0 .505.275.432.557l-.123.475c-.039.15.164.262.28.158 1.094-.987 2.494-1.441 4.22-1.441.196 0 .38.005.543.013ZM143.97 5.515c.289 0 .501.27.434.55l-3.823 15.874a.446.446 0 0 1-.433.341h-3.651c-.289 0-.5-.27-.433-.55l3.848-15.875c.048-.2.227-.34.433-.34h3.625ZM133.379 5.15c3.139 0 4.597 2.074 3.728 5.439l-2.557 11.343a.445.445 0 0 1-.435.347h-3.621a.446.446 0 0 1-.434-.548l2.618-11.056.001-.001c.307-1.318-.364-2.158-1.85-2.158-1.473 0-2.918.853-3.352 1.987-.001.003-.005.004-.007.003l-.01-.012a.007.007 0 0 0-.007.005l-2.737 11.438a.446.446 0 0 1-.434.342h-3.623a.446.446 0 0 1-.434-.55l3.849-15.874c.048-.2.227-.34.433-.34h3.348c.287 0 .5.268.434.548l-.166.712c-.032.138.13.241.244.158 1.442-1.062 3.275-1.783 5.012-1.783ZM151.249.077c.288 0 .5.27.433.55l-2.62 10.938c-.032.141.135.242.244.147l6.952-6.087a.449.449 0 0 1 .294-.11h3.91c.416 0 .605.519.288.787l-6.886 5.81a.444.444 0 0 0-.12.52l3.988 9.021a.445.445 0 0 1-.406.626h-3.843a.447.447 0 0 1-.41-.27l-2.887-6.792a.445.445 0 0 0-.715-.15l-1.514 1.431a.458.458 0 0 0-.127.22l-1.259 5.22a.447.447 0 0 1-.434.341h-3.654c-.287 0-.5-.27-.432-.55L147.189.42a.447.447 0 0 1 .434-.342h3.626ZM8.038 13.804c.032 0 .061.02.07.05a.072.072 0 0 1 0 .04l-1.41 4.762a.262.262 0 0 1-.4.147 5.803 5.803 0 0 1-.719-.58c-1.061-.994-1.71-2.333-1.803-3.888l-.004-.075a.424.424 0 0 1 .43-.438l3.836-.018ZM2.538 13.095a.446.446 0 0 1 .43.571l-.83 2.828c-.086.295-.439.415-.664.205a4.657 4.657 0 0 1-1.473-3.156.42.42 0 0 1 .426-.438l2.111-.01ZM8.26 14.047a.65.65 0 0 0-.02-.071h.042l-.021.07ZM10.892 2.331c.313-.065.566.234.475.541l-2.44 8.234a.425.425 0 0 1-.646.24c-.899-.62-1.51-1.322-1.848-2.108-.354-.82-.41-1.734-.185-2.745.048-.244.116-.482.204-.715.298-.792.82-1.504 1.517-2.08.778-.65 1.776-1.13 2.923-1.367ZM5.223 3.941c.317-.101.595.202.501.522L3.935 10.57c-.085.29-.429.414-.66.219-1.153-.976-1.534-2.172-1.213-3.617C2.347 5.7 3.536 4.48 5.222 3.94ZM145.48 0c.289 0 .502.272.433.553l-.642 2.604a.446.446 0 0 1-.433.34h-3.824a.445.445 0 0 1-.433-.55l.622-2.605a.447.447 0 0 1 .434-.342h3.843Z"></path></g><defs><clipPath id="a"><path fill="currentColor" d="M0 0h161v28H0z"></path></clipPath></defs></svg>