<svg viewBox="0 0 200 200" width="220" height="220" class="jsx-216d04bc11beb016"><g class="jsx-216d04bc11beb016" style="animation: 4s ease-out 0s infinite normal none running msgSlideIn1;"><path d="M 25 45 H 85 Q 92 45, 92 52 V 72 Q 92 79, 85 79 H 45 L 38 90 L 32 79 H 25 Q 18 79, 18 72 V 52 Q 18 45, 25 45 Z" fill="rgba(162, 193, 194, 0.25)" stroke="#A2C1C2" stroke-width="1.5" class="jsx-216d04bc11beb016"></path><line x1="30" y1="56" x2="82" y2="56" stroke="#A2C1C2" stroke-width="2" stroke-opacity="0.5" stroke-linecap="round" class="jsx-216d04bc11beb016"></line><line x1="30" y1="66" x2="65" y2="66" stroke="#A2C1C2" stroke-width="2" stroke-opacity="0.3" stroke-linecap="round" class="jsx-216d04bc11beb016"></line></g><g class="jsx-216d04bc11beb016" style="animation: 4s ease-out 0s infinite normal none running msgSlideIn2;"><path d="M 115 65 H 175 Q 182 65, 182 72 V 102 Q 182 109, 175 109 H 165 L 158 122 L 150 109 H 115 Q 108 109, 108 102 V 72 Q 108 65, 115 65 Z" fill="rgba(215, 255, 164, 0.2)" stroke="#d7ffa4" stroke-width="1.5" class="jsx-216d04bc11beb016"></path><line x1="118" y1="78" x2="172" y2="78" stroke="#d7ffa4" stroke-width="2" stroke-opacity="0.5" stroke-linecap="round" class="jsx-216d04bc11beb016"></line><line x1="118" y1="88" x2="160" y2="88" stroke="#d7ffa4" stroke-width="2" stroke-opacity="0.4" stroke-linecap="round" class="jsx-216d04bc11beb016"></line><line x1="118" y1="98" x2="145" y2="98" stroke="#d7ffa4" stroke-width="2" stroke-opacity="0.3" stroke-linecap="round" class="jsx-216d04bc11beb016"></line></g><g class="jsx-216d04bc11beb016" style="animation: 4s ease-out 0s infinite normal none running msgSlideIn3;"><path d="M 25 115 H 75 Q 82 115, 82 122 V 142 Q 82 149, 75 149 H 45 L 38 160 L 32 149 H 25 Q 18 149, 18 142 V 122 Q 18 115, 25 115 Z" fill="rgba(162, 193, 194, 0.25)" stroke="#A2C1C2" stroke-width="1.5" class="jsx-216d04bc11beb016"></path><line x1="28" y1="128" x2="72" y2="128" stroke="#A2C1C2" stroke-width="2" stroke-opacity="0.5" stroke-linecap="round" class="jsx-216d04bc11beb016"></line><line x1="28" y1="138" x2="55" y2="138" stroke="#A2C1C2" stroke-width="2" stroke-opacity="0.3" stroke-linecap="round" class="jsx-216d04bc11beb016"></line></g><g class="jsx-216d04bc11beb016" style="animation: 4s ease-out 0s infinite normal none running msgSlideIn4;"><path d="M 100 130 H 175 Q 182 130, 182 137 V 162 Q 182 169, 175 169 H 155 L 148 180 L 140 169 H 100 Q 93 169, 93 162 V 137 Q 93 130, 100 130 Z" fill="rgba(215, 255, 164, 0.25)" stroke="#d7ffa4" stroke-width="1.5" class="jsx-216d04bc11beb016"></path><circle cx="112" cy="150" r="12" fill="rgba(215, 255, 164, 0.3)" class="jsx-216d04bc11beb016"></circle><path d="M 105 150 L 110 155 L 120 143" fill="none" stroke="#d7ffa4" stroke-width="2.5" stroke-linecap="round" stroke-linejoin="round" class="jsx-216d04bc11beb016"></path><line x1="130" y1="145" x2="172" y2="145" stroke="#d7ffa4" stroke-width="2" stroke-opacity="0.5" stroke-linecap="round" class="jsx-216d04bc11beb016"></line><line x1="130" y1="155" x2="158" y2="155" stroke="#d7ffa4" stroke-width="2" stroke-opacity="0.3" stroke-linecap="round" class="jsx-216d04bc11beb016"></line></g></svg>