<svg width="381" height="6" viewBox="0 0 381 6" fill="none" xmlns="http://www.w3.org/2000/svg">
<path d="M374.833 2.6665C374.833 4.13926 376.027 5.33317 377.5 5.33317C378.973 5.33317 380.167 4.13926 380.167 2.6665C380.167 1.19374 378.973 -0.00016284 377.5 -0.00016284C376.027 -0.00016284 374.833 1.19374 374.833 2.6665ZM-19.5 2.6665V3.1665H-15.9554V2.6665V2.1665H-19.5V2.6665ZM-8.86607 2.6665V3.1665H-1.77679V2.6665V2.1665H-8.86607V2.6665ZM5.3125 2.6665V3.1665H12.4018V2.6665V2.1665H5.3125V2.6665ZM19.4911 2.6665V3.1665H26.5804V2.6665V2.1665H19.4911V2.6665ZM33.6696 2.6665V3.1665H40.7589V2.6665V2.1665H33.6696V2.6665ZM47.8482 2.6665V3.1665H54.9375V2.6665V2.1665H47.8482V2.6665ZM62.0268 2.6665V3.1665H69.1161V2.6665V2.1665H62.0268V2.6665ZM76.2054 2.6665V3.1665H83.2947V2.6665V2.1665H76.2054V2.6665ZM90.3839 2.6665V3.1665H97.4732V2.6665V2.1665H90.3839V2.6665ZM104.563 2.6665V3.1665H111.652V2.6665V2.1665H104.563V2.6665ZM118.741 2.6665V3.1665H125.83V2.6665V2.1665H118.741V2.6665ZM132.92 2.6665V3.1665H140.009V2.6665V2.1665H132.92V2.6665ZM147.098 2.6665V3.1665H154.187V2.6665V2.1665H147.098V2.6665ZM161.277 2.6665V3.1665H168.366V2.6665V2.1665H161.277V2.6665ZM175.455 2.6665V3.1665H182.545V2.6665V2.1665H175.455V2.6665ZM189.634 2.6665V3.1665H196.723V2.6665V2.1665H189.634V2.6665ZM203.812 2.6665V3.1665H210.902V2.6665V2.1665H203.812V2.6665ZM217.991 2.6665V3.1665H225.08V2.6665V2.1665H217.991V2.6665ZM232.17 2.6665V3.1665H239.259V2.6665V2.1665H232.17V2.6665ZM246.348 2.6665V3.1665H253.437V2.6665V2.1665H246.348V2.6665ZM260.527 2.6665V3.1665H267.616V2.6665V2.1665H260.527V2.6665ZM274.705 2.6665V3.1665H281.795V2.6665V2.1665H274.705V2.6665ZM288.884 2.6665V3.1665H295.973V2.6665V2.1665H288.884V2.6665ZM303.062 2.6665V3.1665H310.152V2.6665V2.1665H303.062V2.6665ZM317.241 2.6665V3.1665H324.33V2.6665V2.1665H317.241V2.6665ZM331.42 2.6665V3.1665H338.509V2.6665V2.1665H331.42V2.6665ZM345.598 2.6665V3.1665H352.688V2.6665V2.1665H345.598V2.6665ZM359.777 2.6665V3.1665H366.866V2.6665V2.1665H359.777V2.6665ZM373.955 2.6665V3.1665H377.5V2.6665V2.1665H373.955V2.6665Z" fill="#6C6161" fill-opacity="0.3"></path>
</svg>